<svg width="24" height="25" viewBox="0 0 24 25" fill="none" xmlns="http://www.w3.org/2000/svg">
<g id="Social Icons" clip-path="url(#clip0_4_510)">
<path id="Vector" d="M21.792 19.2035C21.429 20.042 20.9994 20.8139 20.5016 21.5235C19.8231 22.4908 19.2676 23.1605 18.8395 23.5323C18.1758 24.1426 17.4647 24.4552 16.7032 24.473C16.1566 24.473 15.4973 24.3175 14.73 24.0019C13.9601 23.6878 13.2525 23.5323 12.6056 23.5323C11.9271 23.5323 11.1994 23.6878 10.4211 24.0019C9.64153 24.3175 9.01355 24.4819 8.53342 24.4982C7.80322 24.5293 7.07539 24.2078 6.3489 23.5323C5.88521 23.1279 5.30523 22.4345 4.61043 21.4524C3.86498 20.4035 3.25211 19.1872 2.77198 17.8006C2.25777 16.3029 2 14.8526 2 13.4484C2 11.8401 2.34754 10.4528 3.04367 9.29035C3.59076 8.3566 4.31859 7.62003 5.22953 7.07931C6.14046 6.53858 7.12473 6.26304 8.18469 6.24541C8.76467 6.24541 9.52524 6.42481 10.4704 6.77739C11.4129 7.13116 12.0181 7.31056 12.2834 7.31056C12.4817 7.31056 13.154 7.10079 14.2937 6.68258C15.3714 6.29474 16.281 6.13415 17.0262 6.19741C19.0454 6.36037 20.5624 7.15634 21.5712 8.59037C19.7654 9.68456 18.8721 11.2171 18.8898 13.1831C18.9061 14.7145 19.4617 15.9888 20.5535 17.0006C21.0483 17.4703 21.6009 17.8332 22.2156 18.091C22.0823 18.4776 21.9416 18.848 21.792 19.2035ZM17.161 0.980381C17.161 2.18066 16.7225 3.30135 15.8484 4.33865C14.7937 5.5718 13.5179 6.28437 12.1343 6.17193C12.1167 6.02793 12.1065 5.87638 12.1065 5.71713C12.1065 4.56487 12.6081 3.33172 13.4989 2.32345C13.9436 1.81295 14.5092 1.38847 15.1951 1.04986C15.8796 0.716299 16.5269 0.531833 17.1358 0.500244C17.1536 0.660702 17.161 0.82117 17.161 0.980365V0.980381Z" fill="black"/>
</g>
<defs>
<clipPath id="clip0_4_510">
<rect width="24" height="24" fill="white" transform="translate(0 0.5)"/>
</clipPath>
</defs>
</svg>
