<svg width="20" height="20" viewBox="0 0 20 20" fill="none" xmlns="http://www.w3.org/2000/svg">
<g id="Group">
<path id="Vector" d="M3.33337 12.5V7.08337C3.33337 6.08881 3.72846 5.13498 4.43172 4.43172C5.13498 3.72846 6.08881 3.33337 7.08337 3.33337C8.07794 3.33337 9.03176 3.72846 9.73502 4.43172C10.4383 5.13498 10.8334 6.08881 10.8334 7.08337V12.9167C10.8334 13.4692 11.0529 13.9991 11.4436 14.3898C11.8343 14.7805 12.3642 15 12.9167 15C13.4692 15 13.9991 14.7805 14.3898 14.3898C14.7805 13.9991 15 13.4692 15 12.9167V7.35837C14.4438 7.16179 13.975 6.77488 13.6764 6.26604C13.3779 5.75719 13.2688 5.15919 13.3685 4.57772C13.4683 3.99625 13.7703 3.46875 14.2214 3.08848C14.6724 2.7082 15.2434 2.49963 15.8334 2.49963C16.4233 2.49963 16.9943 2.7082 17.4454 3.08848C17.8964 3.46875 18.1985 3.99625 18.2982 4.57772C18.3979 5.15919 18.2889 5.75719 17.9903 6.26604C17.6918 6.77488 17.2229 7.16179 16.6667 7.35837V12.9167C16.6667 13.9113 16.2716 14.8651 15.5684 15.5684C14.8651 16.2716 13.9113 16.6667 12.9167 16.6667C11.9221 16.6667 10.9683 16.2716 10.2651 15.5684C9.5618 14.8651 9.16671 13.9113 9.16671 12.9167V7.08337C9.16671 6.53084 8.94721 6.00094 8.55651 5.61023C8.16581 5.21953 7.63591 5.00004 7.08337 5.00004C6.53084 5.00004 6.00094 5.21953 5.61023 5.61023C5.21953 6.00094 5.00004 6.53084 5.00004 7.08337V12.5H7.50004L4.16671 16.6667L0.833374 12.5H3.33337Z" fill="#485D6B"/>
</g>
</svg>
