<svg width="32" height="32" viewBox="0 0 32 32" fill="none" xmlns="http://www.w3.org/2000/svg">
<rect x="1" y="1" width="30" height="30" rx="15" fill="#2B80FF"/>
<rect x="1" y="1" width="30" height="30" rx="15" stroke="white" stroke-width="2"/>
<g clip-path="url(#clip0_125_6050)">
<path d="M16.6 12.5721L19.428 15.4007L12.828 22.0001H10V19.1714L16.6 12.5714V12.5721ZM17.5427 11.6294L18.9567 10.2147C19.0817 10.0897 19.2512 10.0195 19.428 10.0195C19.6048 10.0195 19.7743 10.0897 19.8993 10.2147L21.7853 12.1007C21.9103 12.2257 21.9805 12.3953 21.9805 12.5721C21.9805 12.7488 21.9103 12.9184 21.7853 13.0434L20.3707 14.4574L17.5427 11.6294Z" fill="white"/>
</g>
<defs>
<clipPath id="clip0_125_6050">
<rect width="16" height="16" fill="white" transform="translate(8 8)"/>
</clipPath>
</defs>
</svg>
