<svg width="24" height="25" viewBox="0 0 24 25" fill="none" xmlns="http://www.w3.org/2000/svg">
<g id="Vector">
<path id="Vector_2" d="M11.9998 10.3181V14.9654H18.458C18.1744 16.4599 17.3234 17.7254 16.047 18.5763L19.9416 21.5982C22.2107 19.5037 23.5198 16.4273 23.5198 12.7728C23.5198 11.9219 23.4434 11.1036 23.3015 10.3182L11.9998 10.3181Z" fill="#4285F4"/>
<path id="Vector_3" d="M5.27468 14.7841L4.39631 15.4564L1.28717 17.8782C3.26171 21.7945 7.30868 24.5 11.9996 24.5C15.2395 24.5 17.9558 23.4309 19.9413 21.5983L16.0468 18.5764C14.9777 19.2964 13.614 19.7328 11.9996 19.7328C8.87957 19.7328 6.22874 17.6274 5.27958 14.791L5.27468 14.7841Z" fill="#34A853"/>
<path id="Vector_4" d="M1.28718 7.12183C0.469042 8.73631 0 10.5581 0 12.4999C0 14.4417 0.469042 16.2636 1.28718 17.878C1.28718 17.8889 5.27997 14.7799 5.27997 14.7799C5.03998 14.0599 4.89812 13.2963 4.89812 12.4998C4.89812 11.7033 5.03998 10.9398 5.27997 10.2198L1.28718 7.12183Z" fill="#FBBC05"/>
<path id="Vector_5" d="M11.9998 5.27818C13.7671 5.27818 15.338 5.88907 16.5925 7.06727L20.0289 3.63095C17.9452 1.68917 15.2398 0.5 11.9998 0.5C7.30893 0.5 3.26171 3.19454 1.28717 7.12183L5.27984 10.22C6.22888 7.38362 8.87982 5.27818 11.9998 5.27818Z" fill="#EA4335"/>
</g>
</svg>
