<svg width="25" height="24" viewBox="0 0 25 24" fill="none" xmlns="http://www.w3.org/2000/svg">
<g clip-path="url(#clip0_275_2185)">
<path d="M7.05498 19L2.59998 22.5V4C2.59998 3.73478 2.70534 3.48043 2.89288 3.29289C3.08041 3.10536 3.33477 3 3.59998 3H21.6C21.8652 3 22.1196 3.10536 22.3071 3.29289C22.4946 3.48043 22.6 3.73478 22.6 4V18C22.6 18.2652 22.4946 18.5196 22.3071 18.7071C22.1196 18.8946 21.8652 19 21.6 19H7.05498ZM6.36298 17H20.6V5H4.59998V18.385L6.36298 17ZM11.6 10H13.6V12H11.6V10ZM7.59998 10H9.59998V12H7.59998V10ZM15.6 10H17.6V12H15.6V10Z" fill="#7691A3"/>
</g>
<defs>
<clipPath id="clip0_275_2185">
<rect width="24" height="24" fill="white" transform="translate(0.599983)"/>
</clipPath>
</defs>
</svg>
