<svg width="20" height="20" viewBox="0 0 20 20" fill="none" xmlns="http://www.w3.org/2000/svg">
<g id="Group">
<path id="Vector" d="M6.07592 17.3532L1.66676 18.3332L2.64676 13.924C2.00137 12.7168 1.6647 11.3687 1.66676 9.99984C1.66676 5.39734 5.39759 1.6665 10.0001 1.6665C14.6026 1.6665 18.3334 5.39734 18.3334 9.99984C18.3334 14.6023 14.6026 18.3332 10.0001 18.3332C8.63122 18.3352 7.28311 17.9986 6.07592 17.3532V17.3532ZM6.31759 15.5923L6.86176 15.884C7.82722 16.4 8.90542 16.6688 10.0001 16.6665C11.3186 16.6665 12.6076 16.2755 13.7039 15.543C14.8002 14.8104 15.6547 13.7692 16.1593 12.5511C16.6639 11.3329 16.7959 9.99244 16.5387 8.69924C16.2814 7.40603 15.6465 6.21814 14.7141 5.28579C13.7818 4.35344 12.5939 3.7185 11.3007 3.46127C10.0075 3.20403 8.66704 3.33606 7.44887 3.84064C6.23069 4.34522 5.1895 5.19971 4.45696 6.29604C3.72442 7.39236 3.33342 8.6813 3.33342 9.99984C3.33342 11.1115 3.60426 12.1815 4.11676 13.1382L4.40759 13.6823L3.86176 16.1382L6.31759 15.5923V15.5923ZM5.83342 9.99984H7.50009C7.50009 10.6629 7.76348 11.2988 8.23232 11.7676C8.70116 12.2364 9.33705 12.4998 10.0001 12.4998C10.6631 12.4998 11.299 12.2364 11.7679 11.7676C12.2367 11.2988 12.5001 10.6629 12.5001 9.99984H14.1668C14.1668 11.1049 13.7278 12.1647 12.9464 12.9461C12.165 13.7275 11.1052 14.1665 10.0001 14.1665C8.89502 14.1665 7.83521 13.7275 7.05381 12.9461C6.27241 12.1647 5.83342 11.1049 5.83342 9.99984V9.99984Z" fill="#485D6B"/>
</g>
</svg>
