<svg width="25" height="24" viewBox="0 0 25 24" fill="none" xmlns="http://www.w3.org/2000/svg">
<g id="Group">
<path id="Vector" d="M12.25 2C17.773 2 22.25 6.477 22.25 12C22.25 17.523 17.773 22 12.25 22C6.727 22 2.25 17.523 2.25 12H4.25C4.25 16.418 7.832 20 12.25 20C16.668 20 20.25 16.418 20.25 12C20.25 7.582 16.668 4 12.25 4C9.786 4 7.582 5.114 6.115 6.865L8.25 9H2.25V3L4.697 5.446C6.53 3.336 9.234 2 12.25 2ZM13.25 7V11.585L16.493 14.828L15.078 16.243L11.25 12.413V7H13.25Z" fill="#7691A3"/>
</g>
</svg>
