<svg width="20" height="20" viewBox="0 0 20 20" fill="none" xmlns="http://www.w3.org/2000/svg">
<g id="Group">
<path id="Vector" d="M10.8333 6.01685L8.00242 8.33351H4.99992V11.6668H8.00242L10.8333 13.9835V6.01685ZM7.40742 13.3335H4.16659C3.94557 13.3335 3.73361 13.2457 3.57733 13.0894C3.42105 12.9332 3.33325 12.7212 3.33325 12.5002V7.50018C3.33325 7.27917 3.42105 7.0672 3.57733 6.91092C3.73361 6.75464 3.94557 6.66685 4.16659 6.66685H7.40742L11.8191 3.05685C11.8801 3.0068 11.9541 2.97513 12.0325 2.96551C12.1108 2.95589 12.1903 2.96872 12.2616 3.00251C12.333 3.0363 12.3932 3.08966 12.4354 3.15637C12.4776 3.22309 12.5 3.30041 12.4999 3.37935V16.621C12.5 16.6999 12.4776 16.7773 12.4354 16.844C12.3932 16.9107 12.333 16.9641 12.2616 16.9978C12.1903 17.0316 12.1108 17.0445 12.0325 17.0349C11.9541 17.0252 11.8801 16.9936 11.8191 16.9435L7.40825 13.3335H7.40742ZM15.7191 13.826L14.5341 12.641C14.9386 12.3299 15.2662 11.93 15.4915 11.472C15.7168 11.0141 15.8337 10.5105 15.8333 10.0002C15.8333 8.80851 15.2083 7.76268 14.2666 7.17351L15.4658 5.97435C16.097 6.43867 16.61 7.04506 16.9634 7.74444C17.3168 8.44383 17.5006 9.21658 17.4999 10.0002C17.4999 11.5352 16.8083 12.9085 15.7191 13.826Z" fill="#485D6B"/>
</g>
</svg>
