<svg width="22" height="22" viewBox="0 0 22 22" fill="none" xmlns="http://www.w3.org/2000/svg">
<g id="smoke_free_24dp_FILL0_wght400_GRAD0_opsz24 1">
<path id="Vector" d="M18.1501 20.7168L12.1001 14.6668H1.83345V11.9168H9.35011L1.28345 3.85016L2.56678 2.56683L19.4334 19.4335L18.1501 20.7168ZM17.2793 14.6668L16.5001 13.8877V11.9168H17.8751V14.6668H17.2793ZM18.7918 14.6668V11.9168H20.1668V14.6668H18.7918ZM15.5834 12.971L14.5293 11.9168H15.5834V12.971ZM16.5001 11.0002V9.8085C16.5001 9.21266 16.3244 8.75815 15.973 8.44495C15.6216 8.13176 15.2015 7.97516 14.7126 7.97516H13.2918C12.4362 7.97516 11.7105 7.67725 11.1147 7.08141C10.5189 6.48558 10.2209 5.75989 10.2209 4.90433C10.2209 4.04877 10.5189 3.32308 11.1147 2.72725C11.7105 2.13141 12.4362 1.8335 13.2918 1.8335V3.2085C12.8334 3.2085 12.4362 3.36891 12.1001 3.68975C11.764 4.01058 11.5959 4.41544 11.5959 4.90433C11.5959 5.39322 11.764 5.79808 12.1001 6.11891C12.4362 6.43975 12.8334 6.60016 13.2918 6.60016H14.7126C15.5682 6.60016 16.3091 6.87516 16.9355 7.42516C17.5619 7.97516 17.8751 8.66266 17.8751 9.48766V11.0002H16.5001ZM18.7918 11.0002V8.93766C18.7918 7.92933 18.4404 7.0585 17.7376 6.32516C17.0348 5.59183 16.164 5.22516 15.1251 5.22516V3.85016C15.5834 3.85016 15.9807 3.68211 16.3168 3.346C16.6529 3.00989 16.8209 2.61266 16.8209 2.15433H18.1959C18.1959 2.59739 18.1119 2.99843 17.9439 3.35745C17.7758 3.71648 17.5543 4.04877 17.2793 4.35433C18.1348 4.75155 18.83 5.36266 19.3647 6.18766C19.8994 7.01266 20.1668 7.92933 20.1668 8.93766V11.0002H18.7918Z" fill="#485D6B"/>
</g>
</svg>
