<svg width="20" height="20" viewBox="0 0 20 20" fill="none" xmlns="http://www.w3.org/2000/svg">
<g id="Group">
<path id="Vector" d="M8.33325 6.01685L5.50242 8.33351H2.49992V11.6668H5.50242L8.33325 13.9835V6.01685ZM4.90742 13.3335H1.66659C1.44557 13.3335 1.23361 13.2457 1.07733 13.0894C0.921049 12.9332 0.833252 12.7212 0.833252 12.5002V7.50018C0.833252 7.27917 0.921049 7.0672 1.07733 6.91092C1.23361 6.75464 1.44557 6.66685 1.66659 6.66685H4.90742L9.31909 3.05685C9.38013 3.0068 9.45413 2.97513 9.53247 2.96551C9.61082 2.95589 9.69029 2.96872 9.76162 3.00251C9.83296 3.0363 9.89323 3.08966 9.93541 3.15637C9.9776 3.22309 9.99997 3.30041 9.99992 3.37935V16.621C9.99997 16.6999 9.9776 16.7773 9.93541 16.844C9.89323 16.9107 9.83296 16.9641 9.76162 16.9978C9.69029 17.0316 9.61082 17.0445 9.53247 17.0349C9.45413 17.0252 9.38013 16.9936 9.31909 16.9435L4.90825 13.3335H4.90742ZM17.0116 10.0002L19.9583 12.9468L18.7799 14.1252L15.8333 11.1785L12.8866 14.1252L11.7083 12.9468L14.6549 10.0002L11.7083 7.05351L12.8866 5.87518L15.8333 8.82185L18.7799 5.87518L19.9583 7.05351L17.0116 10.0002Z" fill="#485D6B"/>
</g>
</svg>
