<svg width="20" height="20" viewBox="0 0 20 20" fill="none" xmlns="http://www.w3.org/2000/svg">
<g id="chat-smile-2-line" clip-path="url(#clip0_185_2495)">
<g id="Group">
<path id="Vector" d="M6.07592 17.3532L1.66676 18.3332L2.64676 13.924C2.00137 12.7168 1.6647 11.3687 1.66676 9.99984C1.66676 5.39734 5.39759 1.6665 10.0001 1.6665C14.6026 1.6665 18.3334 5.39734 18.3334 9.99984C18.3334 14.6023 14.6026 18.3332 10.0001 18.3332C8.63122 18.3352 7.28311 17.9986 6.07592 17.3532ZM6.31759 15.5923L6.86176 15.884C7.82722 16.4 8.90542 16.6688 10.0001 16.6665C11.3186 16.6665 12.6076 16.2755 13.7039 15.543C14.8002 14.8104 15.6547 13.7692 16.1593 12.5511C16.6639 11.3329 16.7959 9.99244 16.5387 8.69924C16.2814 7.40603 15.6465 6.21814 14.7141 5.28579C13.7818 4.35344 12.5939 3.7185 11.3007 3.46127C10.0075 3.20403 8.66704 3.33606 7.44887 3.84064C6.23069 4.34522 5.1895 5.19971 4.45696 6.29604C3.72442 7.39236 3.33342 8.6813 3.33342 9.99984C3.33342 11.1115 3.60426 12.1815 4.11676 13.1382L4.40759 13.6823L3.86176 16.1382L6.31759 15.5923Z" fill="#485D6B"/>
</g>
<line id="Line 12" x1="5" y1="10" x2="15" y2="10" stroke="#485D6B" stroke-width="2"/>
</g>
<defs>
<clipPath id="clip0_185_2495">
<rect width="20" height="20" fill="white"/>
</clipPath>
</defs>
</svg>
