<svg width="22" height="22" viewBox="0 0 22 22" fill="none" xmlns="http://www.w3.org/2000/svg">
<g id="smoking_rooms_24dp_FILL0_wght400_GRAD0_opsz24 1">
<path id="Vector" d="M1.83325 17.4168V14.6668H15.5833V17.4168H1.83325ZM16.4999 17.4168V14.6668H17.8749V17.4168H16.4999ZM18.7916 17.4168V14.6668H20.1666V17.4168H18.7916ZM16.4999 13.7502V12.5585C16.4999 11.9627 16.3242 11.5081 15.9728 11.195C15.6214 10.8818 15.2013 10.7252 14.7124 10.7252H13.2916C12.436 10.7252 11.7103 10.4272 11.1145 9.83141C10.5187 9.23558 10.2208 8.50988 10.2208 7.65433C10.2208 6.79877 10.5187 6.07308 11.1145 5.47725C11.7103 4.88141 12.436 4.5835 13.2916 4.5835V5.9585C12.8333 5.9585 12.436 6.11891 12.0999 6.43975C11.7638 6.76058 11.5958 7.16544 11.5958 7.65433C11.5958 8.14322 11.7638 8.54808 12.0999 8.86891C12.436 9.18975 12.8333 9.35016 13.2916 9.35016H14.7124C15.568 9.35016 16.3089 9.62516 16.9353 10.1752C17.5617 10.7252 17.8749 11.4127 17.8749 12.2377V13.7502H16.4999ZM18.7916 13.7502V11.6877C18.7916 10.6793 18.4402 9.8085 17.7374 9.07516C17.0346 8.34183 16.1638 7.97516 15.1249 7.97516V6.60016C15.5833 6.60016 15.9805 6.43211 16.3166 6.096C16.6527 5.75988 16.8208 5.36266 16.8208 4.90433C16.8208 4.446 16.6527 4.04877 16.3166 3.71266C15.9805 3.37655 15.5833 3.2085 15.1249 3.2085V1.8335C15.9805 1.8335 16.7062 2.13141 17.302 2.72725C17.8978 3.32308 18.1958 4.04877 18.1958 4.90433C18.1958 5.34738 18.1117 5.74843 17.9437 6.10745C17.7756 6.46648 17.5541 6.79877 17.2791 7.10433C18.1346 7.50155 18.8298 8.11266 19.3645 8.93766C19.8992 9.76266 20.1666 10.6793 20.1666 11.6877V13.7502H18.7916Z" fill="#485D6B"/>
</g>
</svg>
