<svg width="46" height="46" viewBox="0 0 46 46" fill="none" xmlns="http://www.w3.org/2000/svg">
<rect width="46" height="46" rx="23" fill="#F6F8F9"/>
<g clip-path="url(#clip0_208_2540)">
<path d="M20.55 22.5C19.9533 22.5 19.381 22.2629 18.959 21.841C18.5371 21.419 18.3 20.8467 18.3 20.25C18.3 19.6533 18.5371 19.081 18.959 18.659C19.381 18.2371 19.9533 18 20.55 18C21.1467 18 21.719 18.2371 22.141 18.659C22.5629 19.081 22.8 19.6533 22.8 20.25C22.8 20.8467 22.5629 21.419 22.141 21.841C21.719 22.2629 21.1467 22.5 20.55 22.5ZM21 30.748V27.4C21 26.912 21.144 26.463 21.404 26.062C20.5127 25.9352 19.6047 25.9957 18.7381 26.2397C17.8714 26.4837 17.0652 26.9058 16.371 27.479C17.4641 29.0966 19.1101 30.2594 21 30.749V30.748ZM15.453 25.66C16.9135 24.5792 18.6831 23.9971 20.5 24C21.543 24 22.543 24.188 23.467 24.532C24.345 24.189 25.392 24 26.5 24C28.16 24 29.685 24.424 30.706 25.156C31.0435 23.9459 31.0913 22.6733 30.8455 21.4412C30.5997 20.2092 30.0671 19.0524 29.291 18.0644C28.5149 17.0765 27.517 16.2853 26.3782 15.7548C25.2394 15.2243 23.9916 14.9695 22.736 15.011C21.4803 15.0525 20.2521 15.3891 19.1508 15.9936C18.0494 16.5981 17.106 17.4535 16.3968 18.4905C15.6875 19.5275 15.2325 20.7169 15.0686 21.9625C14.9046 23.2081 15.0363 24.4748 15.453 25.66ZM29.879 27.086C29.486 26.553 28.171 26 26.5 26C24.494 26 23 26.797 23 27.4V31C24.3878 31.0008 25.752 30.6403 26.9583 29.954C28.1646 29.2678 29.1715 28.2794 29.88 27.086H29.879ZM23 33C17.477 33 13 28.523 13 23C13 17.477 17.477 13 23 13C28.523 13 33 17.477 33 23C33 28.523 28.523 33 23 33ZM26.5 23.5C25.9696 23.5 25.4609 23.2893 25.0858 22.9142C24.7107 22.5391 24.5 22.0304 24.5 21.5C24.5 20.9696 24.7107 20.4609 25.0858 20.0858C25.4609 19.7107 25.9696 19.5 26.5 19.5C27.0304 19.5 27.5391 19.7107 27.9142 20.0858C28.2893 20.4609 28.5 20.9696 28.5 21.5C28.5 22.0304 28.2893 22.5391 27.9142 22.9142C27.5391 23.2893 27.0304 23.5 26.5 23.5Z" fill="#485D6B"/>
</g>
<defs>
<clipPath id="clip0_208_2540">
<rect width="24" height="24" fill="white" transform="translate(11 11)"/>
</clipPath>
</defs>
</svg>
