<svg width="18" height="18" viewBox="0 0 18 18" fill="none" xmlns="http://www.w3.org/2000/svg">
<g id="Frame">
<circle id="Ellipse 102" cx="9.45" cy="9.45" r="4.95" fill="white"/>
<path id="Vector" d="M7.50525 1.57795C6.45408 1.23767 5.31136 1.71099 4.80867 2.69492L4.20433 3.87779C4.13253 4.01834 4.01822 4.13265 3.87767 4.20446L2.69479 4.80879C1.71087 5.31148 1.23754 6.4542 1.57783 7.50537L1.98692 8.76912C2.03553 8.91927 2.03553 9.08097 1.98692 9.23112L1.57783 10.4949C1.23754 11.5461 1.71087 12.6888 2.69479 13.1915L3.87767 13.7958C4.01822 13.8676 4.13253 13.9819 4.20433 14.1225L4.80867 15.3054C5.31136 16.2893 6.45408 16.7626 7.50525 16.4223L8.769 16.0132C8.91915 15.9646 9.08085 15.9646 9.231 16.0132L10.4947 16.4223C11.5459 16.7626 12.6886 16.2893 13.1914 15.3054L13.7956 14.1225C13.8675 13.9819 13.9818 13.8676 14.1223 13.7958L15.3052 13.1915C16.2892 12.6888 16.7625 11.5461 16.4222 10.4949L16.0131 9.23112C15.9645 9.08097 15.9645 8.91927 16.0131 8.76912L16.4222 7.50537C16.7625 6.4542 16.2892 5.31148 15.3052 4.80879L14.1223 4.20446C13.9818 4.13265 13.8675 4.01834 13.7956 3.87779L13.1914 2.69492C12.6886 1.71099 11.5459 1.23767 10.4947 1.57795L9.231 1.98704C9.08085 2.03564 8.91915 2.03565 8.769 1.98704L7.50525 1.57795ZM5.06983 8.8181L6.13049 7.75737L8.2518 9.87875L12.4945 5.63611L13.5551 6.69677L8.2518 12L5.06983 8.8181Z" fill="#10B271"/>
</g>
</svg>
