<svg width="46" height="46" viewBox="0 0 46 46" fill="none" xmlns="http://www.w3.org/2000/svg">
<rect width="46" height="46" rx="23" fill="#F6F8F9"/>
<g clip-path="url(#clip0_304_5646)">
<path d="M28.8332 29.6668H17.1665V30.5002C17.1665 30.7212 17.0787 30.9331 16.9224 31.0894C16.7661 31.2457 16.5542 31.3335 16.3332 31.3335H15.4998C15.2788 31.3335 15.0669 31.2457 14.9106 31.0894C14.7543 30.9331 14.6665 30.7212 14.6665 30.5002V22.1668L16.7332 17.3435C16.8618 17.0435 17.0756 16.7879 17.3482 16.6083C17.6208 16.4288 17.9401 16.3332 18.2665 16.3335H27.7332C28.0593 16.3335 28.3782 16.4292 28.6505 16.6088C28.9227 16.7883 29.1363 17.0438 29.2648 17.3435L31.3332 22.1668V30.5002C31.3332 30.7212 31.2454 30.9331 31.0891 31.0894C30.9328 31.2457 30.7209 31.3335 30.4998 31.3335H29.6665C29.4455 31.3335 29.2335 31.2457 29.0772 31.0894C28.921 30.9331 28.8332 30.7212 28.8332 30.5002V29.6668ZM29.6665 23.8335H16.3332V28.0002H29.6665V23.8335ZM16.4798 22.1668H29.5198L27.734 18.0002H18.2665L16.4807 22.1668H16.4798ZM18.4165 27.1668C18.085 27.1668 17.767 27.0351 17.5326 26.8007C17.2982 26.5663 17.1665 26.2484 17.1665 25.9168C17.1665 25.5853 17.2982 25.2674 17.5326 25.0329C17.767 24.7985 18.085 24.6668 18.4165 24.6668C18.748 24.6668 19.066 24.7985 19.3004 25.0329C19.5348 25.2674 19.6665 25.5853 19.6665 25.9168C19.6665 26.2484 19.5348 26.5663 19.3004 26.8007C19.066 27.0351 18.748 27.1668 18.4165 27.1668ZM27.5832 27.1668C27.2517 27.1668 26.9337 27.0351 26.6993 26.8007C26.4649 26.5663 26.3332 26.2484 26.3332 25.9168C26.3332 25.5853 26.4649 25.2674 26.6993 25.0329C26.9337 24.7985 27.2517 24.6668 27.5832 24.6668C27.9147 24.6668 28.2326 24.7985 28.4671 25.0329C28.7015 25.2674 28.8332 25.5853 28.8332 25.9168C28.8332 26.2484 28.7015 26.5663 28.4671 26.8007C28.2326 27.0351 27.9147 27.1668 27.5832 27.1668Z" fill="#7691A3"/>
</g>
<defs>
<clipPath id="clip0_304_5646">
<rect width="20" height="20" fill="white" transform="translate(13 13)"/>
</clipPath>
</defs>
</svg>
