<svg width="46" height="46" viewBox="0 0 46 46" fill="none" xmlns="http://www.w3.org/2000/svg">
<rect width="46" height="46" rx="23" fill="#F6F8F9"/>
<g clip-path="url(#clip0_211_2560)">
<path d="M22 26.934C20.116 26.6786 18.3992 25.7172 17.1969 24.2443C15.9946 22.7714 15.3965 20.8969 15.5235 18.9998C15.6505 17.1028 16.4932 15.3248 17.8812 14.0253C19.2691 12.7258 21.0987 12.002 23 12C24.9037 11.9982 26.7368 12.7203 28.1277 14.0199C29.5186 15.3196 30.3633 17.0995 30.4905 18.9989C30.6177 20.8983 30.0179 22.775 28.8126 24.2485C27.6074 25.722 25.8869 26.682 24 26.934V29H29V31H24V35H22V31H17V29H22V26.934ZM23 25C24.4587 25 25.8577 24.4205 26.8891 23.3891C27.9206 22.3576 28.5 20.9587 28.5 19.5C28.5 18.0413 27.9206 16.6424 26.8891 15.6109C25.8577 14.5795 24.4587 14 23 14C21.5413 14 20.1424 14.5795 19.1109 15.6109C18.0795 16.6424 17.5 18.0413 17.5 19.5C17.5 20.9587 18.0795 22.3576 19.1109 23.3891C20.1424 24.4205 21.5413 25 23 25Z" fill="#485D6B"/>
</g>
<defs>
<clipPath id="clip0_211_2560">
<rect width="24" height="24" fill="white" transform="translate(11 11)"/>
</clipPath>
</defs>
</svg>
