<svg width="25" height="24" viewBox="0 0 25 24" fill="none" xmlns="http://www.w3.org/2000/svg">
<g id="Group">
<path id="Vector" d="M18.75 7H21.75C22.0152 7 22.2696 7.10536 22.4571 7.29289C22.6446 7.48043 22.75 7.73478 22.75 8V20C22.75 20.2652 22.6446 20.5196 22.4571 20.7071C22.2696 20.8946 22.0152 21 21.75 21H3.75C3.48478 21 3.23043 20.8946 3.04289 20.7071C2.85536 20.5196 2.75 20.2652 2.75 20V4C2.75 3.73478 2.85536 3.48043 3.04289 3.29289C3.23043 3.10536 3.48478 3 3.75 3H18.75V7ZM4.75 9V19H20.75V9H4.75ZM4.75 5V7H16.75V5H4.75ZM15.75 13H18.75V15H15.75V13Z" fill="#7691A3"/>
</g>
</svg>
