<svg width="20" height="20" viewBox="0 0 20 20" fill="none" xmlns="http://www.w3.org/2000/svg">
<g id="Group">
<path id="Vector" d="M6.34751 7.26L9.01834 5.32C9.31816 5.10059 9.68284 4.98793 10.0542 5C10.5071 5.01129 10.9452 5.16342 11.3077 5.43524C11.6702 5.70705 11.939 6.08504 12.0767 6.51667C12.2317 7.0025 12.3733 7.33083 12.5017 7.50167C12.8894 8.019 13.3924 8.43884 13.9708 8.72786C14.5491 9.01688 15.1868 9.16712 15.8333 9.16667V10.8333C14.9728 10.8343 14.1227 10.6444 13.3443 10.2774C12.5659 9.91038 11.8785 9.37535 11.3317 8.71083L10.7508 12.0067L12.4683 13.4483L14.3208 18.5383L12.7542 19.1083L11.0542 14.4383L8.22918 12.0675C7.99734 11.8803 7.81994 11.6344 7.71544 11.3553C7.61094 11.0762 7.58316 10.7743 7.63501 10.4808L8.05918 8.07667L7.49501 8.48667L5.72251 10.9267L4.37418 9.94667L6.33334 7.25L6.34751 7.26ZM11.25 4.58333C10.808 4.58333 10.3841 4.40774 10.0715 4.09518C9.75894 3.78262 9.58334 3.35869 9.58334 2.91667C9.58334 2.47464 9.75894 2.05072 10.0715 1.73816C10.3841 1.42559 10.808 1.25 11.25 1.25C11.692 1.25 12.116 1.42559 12.4285 1.73816C12.7411 2.05072 12.9167 2.47464 12.9167 2.91667C12.9167 3.35869 12.7411 3.78262 12.4285 4.09518C12.116 4.40774 11.692 4.58333 11.25 4.58333ZM8.77334 15.5675L6.09501 18.7592L4.81834 17.6883L7.29834 14.7333L7.92001 12.9167L9.41251 14.1667L8.77334 15.5675Z" fill="#FFAA29"/>
</g>
</svg>
