<svg width="20" height="20" viewBox="0 0 20 20" fill="none" xmlns="http://www.w3.org/2000/svg">
<g id="pet">
<path id="Vector" d="M11.1785 8.82138L11.578 9.22638L11.9654 9.63038L12.3481 10.0408C15.2298 13.1775 16.908 16.0555 16.1872 16.7763C15.8535 17.11 15.0575 16.9295 13.9876 16.3536C11.3199 18.0317 7.82485 17.8673 5.31874 15.8604L7.80164 13.378C8.35741 13.526 8.97475 13.382 9.41075 12.9461C10.0616 12.2953 10.0616 11.24 9.41075 10.5891C8.75983 9.93821 7.70459 9.93821 7.05372 10.5891C6.65107 10.9918 6.49752 11.5491 6.59304 12.0699L6.62211 12.1991L4.14 14.6818C2.13261 12.1756 1.96803 8.68013 3.64627 6.01176C3.07027 4.94235 2.88986 4.14637 3.22356 3.81267C4.03715 2.99908 7.59871 5.24154 11.1785 8.82138ZM16.4818 3.51805C17.1327 4.16891 17.1327 5.22419 16.4818 5.87506C16.4378 5.91904 16.392 5.96004 16.3446 5.99807C17.692 8.12825 17.8611 10.7913 16.8512 13.0562C15.8603 11.4278 14.2927 9.57855 12.357 7.64283L11.9087 7.19966C10.1362 5.46772 8.446 4.0629 6.94391 3.1492C9.20866 2.13889 11.8716 2.30784 14.0033 3.65574C14.0398 3.60783 14.0808 3.56201 14.1247 3.51805C14.7757 2.86717 15.8309 2.86717 16.4818 3.51805Z" fill="#485D6B"/>
</g>
</svg>
